<svg xmlns="http://www.w3.org/2000/svg" xmlns:xlink="http://www.w3.org/1999/xlink" width="40" height="40" viewBox="0 0 40 40">
  <defs>
    <linearGradient id="linear-gradient" x1="0.5" x2="0.5" y2="1" gradientUnits="objectBoundingBox">
      <stop offset="0" stop-color="#fff" stop-opacity="0.078"/>
      <stop offset="1" stop-opacity="0.078"/>
    </linearGradient>
    <radialGradient id="radial-gradient" cx="0.5" cy="0.5" r="0.5" gradientTransform="matrix(1, 0, 0, -1, 0, 1.095)" gradientUnits="objectBoundingBox">
      <stop offset="0" stop-color="#eed7a2"/>
      <stop offset="0.106" stop-color="#f1dcab"/>
      <stop offset="0.437" stop-color="#f8e8c3"/>
      <stop offset="0.744" stop-color="#fcefd2"/>
      <stop offset="1" stop-color="#fef2d7"/>
    </radialGradient>
    <linearGradient id="linear-gradient-2" x1="0.5" y1="247.72" x2="0.5" y2="247.47" gradientUnits="objectBoundingBox">
      <stop offset="0.122" stop-color="#5e6d7b"/>
      <stop offset="0.191" stop-color="#5d6b79"/>
      <stop offset="1" stop-color="#515c69"/>
    </linearGradient>
    <linearGradient id="linear-gradient-3" x1="0.5" y1="1090.4" x2="0.5" y2="1089.4" gradientUnits="objectBoundingBox">
      <stop offset="0" stop-color="#3281e6"/>
      <stop offset="1" stop-color="#3a99eb"/>
    </linearGradient>
    <linearGradient id="linear-gradient-4" x1="0.5" y1="2724.625" x2="0.5" y2="2722.85" gradientUnits="objectBoundingBox">
      <stop offset="0" stop-color="#ff634d"/>
      <stop offset="0.204" stop-color="#fe6464"/>
      <stop offset="0.521" stop-color="#fc6581"/>
      <stop offset="0.794" stop-color="#fa6694"/>
      <stop offset="0.989" stop-color="#fa669a"/>
      <stop offset="1" stop-color="#fa669a"/>
    </linearGradient>
    <linearGradient id="linear-gradient-5" x1="0.5" y1="2725.075" x2="0.5" y2="2723.5" gradientUnits="objectBoundingBox">
      <stop offset="0" stop-color="#0d47a1"/>
      <stop offset="0.365" stop-color="#135fba"/>
      <stop offset="0.734" stop-color="#1770cc"/>
      <stop offset="1" stop-color="#1976d2"/>
    </linearGradient>
    <linearGradient id="linear-gradient-6" y1="2725.075" y2="2723.525" xlink:href="#linear-gradient-5"/>
  </defs>
  <g id="ic_console" transform="translate(-189 -225)">
    <g id="Group_2" data-name="Group 2" transform="translate(-51 40)">
      <rect id="Rectangle_2" data-name="Rectangle 2" width="40" height="40" rx="12" transform="translate(240 185)" fill="url(#linear-gradient)"/>
      <rect id="Rectangle_1" data-name="Rectangle 1" width="40" height="40" rx="12" transform="translate(240 185)" fill="rgba(97,218,251,0.2)"/>
    </g>
    <g id="icons8_console_1" transform="translate(197.463 234.462)">
      <path id="Path_6" data-name="Path 6" d="M20.553,19.368a1.345,1.345,0,0,1-1.359,1.17H2.956a1.307,1.307,0,0,1-1.3-1.438,1.345,1.345,0,0,1,1.359-1.17H4.749A1.146,1.146,0,0,0,5.89,16.789a1.142,1.142,0,0,0-1.141-1.141H2.63a.978.978,0,0,1,0-1.956H7.846v-3.26H2.3a1.307,1.307,0,0,1-1.3-1.438,1.345,1.345,0,0,1,1.359-1.17H3.445a1.141,1.141,0,0,0,0-2.282H2.63A1.307,1.307,0,0,1,1.332,4.1a1.345,1.345,0,0,1,1.359-1.17H6.868a.652.652,0,0,0,0-1.3H5.727a.815.815,0,0,1-.812-.9A.849.849,0,0,1,5.772,0H16.485A.815.815,0,0,1,17.3.9a.849.849,0,0,1-.857.73H15.181a.489.489,0,1,0,0,.978h4.89a.815.815,0,0,1,.812.9.849.849,0,0,1-.857.73h-.117a.652.652,0,1,0,0,1.3h.264a1.345,1.345,0,0,1,1.359,1.17,1.309,1.309,0,0,1-1.3,1.438H14.366v1.956h5.216a.978.978,0,0,1,0,1.956H16.974a.815.815,0,0,0-.815.815c0,.45.365.489.815.489H20.4a1.141,1.141,0,1,1,0,2.282H17.789a1.142,1.142,0,0,0-1.141,1.141,1.146,1.146,0,0,0,1.141,1.141h1.467A1.309,1.309,0,0,1,20.553,19.368Z" transform="translate(0)" fill="url(#radial-gradient)"/>
      <path id="Path_7" data-name="Path 7" d="M23.366,11H11.3A1.3,1.3,0,0,0,10,12.3V24.04a1.3,1.3,0,0,0,1.3,1.3H23.366a1.3,1.3,0,0,0,1.3-1.3V12.3A1.3,1.3,0,0,0,23.366,11Z" transform="translate(-6.066 -7.414)" fill="url(#linear-gradient-2)"/>
      <path id="Path_8" data-name="Path 8" d="M10,12.3V14.26H24.67V12.3a1.3,1.3,0,0,0-1.3-1.3H11.3A1.3,1.3,0,0,0,10,12.3Z" transform="translate(-6.066 -7.414)" fill="url(#linear-gradient-3)"/>
      <path id="Path_9" data-name="Path 9" d="M47.978,15.3h-.652A.327.327,0,0,1,47,14.978v-.652A.327.327,0,0,1,47.326,14h.652a.327.327,0,0,1,.326.326v.652A.327.327,0,0,1,47.978,15.3Z" transform="translate(-31.004 -9.436)" fill="url(#linear-gradient-4)"/>
      <path id="Path_10" data-name="Path 10" d="M40.978,15.3h-.652A.327.327,0,0,1,40,14.978v-.652A.327.327,0,0,1,40.326,14h.652a.327.327,0,0,1,.326.326v.652A.327.327,0,0,1,40.978,15.3Z" transform="translate(-26.286 -9.436)" fill="url(#linear-gradient-5)"/>
      <path id="Path_11" data-name="Path 11" d="M33.978,15.3h-.652A.327.327,0,0,1,33,14.978v-.652A.327.327,0,0,1,33.326,14h.652a.327.327,0,0,1,.326.326v.652A.327.327,0,0,1,33.978,15.3Z" transform="translate(-21.568 -9.436)" fill="url(#linear-gradient-6)"/>
      <path id="Path_12" data-name="Path 12" d="M19.815,34.195a.815.815,0,0,1-.618-1.345L20.7,31.1l-1.5-1.752a.815.815,0,1,1,1.238-1.061l1.956,2.282a.815.815,0,0,1,0,1.061L20.434,33.91A.813.813,0,0,1,19.815,34.195Z" transform="translate(-12.132 -18.872)" fill="#fff"/>
      <path id="Path_13" data-name="Path 13" d="M35.749,43.63H32.815A.815.815,0,0,1,32,42.815h0A.815.815,0,0,1,32.815,42h2.934a.815.815,0,0,1,.815.815h0A.815.815,0,0,1,35.749,43.63Z" transform="translate(-20.894 -28.308)" fill="#fff"/>
    </g>
  </g>
</svg>
