<svg xmlns="http://www.w3.org/2000/svg" xmlns:xlink="http://www.w3.org/1999/xlink" width="40" height="40" viewBox="0 0 40 40">
  <defs>
    <linearGradient id="linear-gradient" x1="0.5" x2="0.5" y2="1" gradientUnits="objectBoundingBox">
      <stop offset="0" stop-color="#fff" stop-opacity="0.078"/>
      <stop offset="1" stop-opacity="0.078"/>
    </linearGradient>
  </defs>
  <g id="ic_javafx" transform="translate(-369 -225)">
    <g id="icons8_java_duke" transform="translate(373.302 233.461)">
      <path id="Path_18" data-name="Path 18" d="M20.58,5.119c-.607.141-.9.516-1.116.514.285-.526.765-.988,1.231-1.658s-.438-1.349-1.179-.74c-.781.636-.665.968-1.045,1.737-.124.446-.341.476-.526.081a4.016,4.016,0,0,0-.657-1.178c-.547-.479-1.17-.125-.836.412a5.036,5.036,0,0,1,.614,2.005,4.462,4.462,0,0,1-1.094,3.53c-1.317-2.726-3.029-4.749-4.238-5.37-.365-.189-.476-.036-.476.14a33.245,33.245,0,0,1,.167,5.89c-.066.606-1.49,2.866-1.419,3.394a5.219,5.219,0,0,0,.773,1.753c-.115-.084-.4.112-.329.377-.508.289-.465.748.056.865.136.351.16.52.534.686-.071.745-.15,1.531-.226,2.369.34,1.683,2.912-1.248,3.243-1.49,1.787-1.324,2.065,1.571,3.314,2.021,2.1.765,1.429-3.716-.266-8.117-.195-2.827.726-3.636,1.631-4.009a2.162,2.162,0,0,1,1.479.013c1.113.324,1.359-.954.366-1.112a3.325,3.325,0,0,1-1.012-.22c.145-.558.7-.6,1.251-.676C22.07,6.152,21.977,4.786,20.58,5.119ZM10.9,15.673l.012-.013h0Zm.438-.973c-.137-.363-.32-.407-.42-.74a6.953,6.953,0,0,0,.542-1.023C11.416,13.588,11.4,14.03,11.339,14.7Zm.982-5.76A1.583,1.583,0,0,1,14.075,8c.6.206.792.962.422,1.686a1.578,1.578,0,0,1-1.752.943C12.147,10.419,11.959,9.663,12.322,8.94Z" fill="#455a64"/>
      <path id="Path_19" data-name="Path 19" d="M15.3,15.835a1.583,1.583,0,0,1,1.753-.943c.6.206.792.962.422,1.686a1.578,1.578,0,0,1-1.752.943C15.124,17.315,14.936,16.559,15.3,15.835Z" transform="translate(-2.977 -6.896)" fill="#f44336"/>
      <path id="Path_20" data-name="Path 20" d="M19.2,25.5c.119.219,1.107,1.571,1.018.321a17.717,17.717,0,0,0-2.157-6.872c-1,1.985-2.545,1.151-2.545,1.151a28.5,28.5,0,0,1-.469,4.526C14.526,29.421,17.158,21.784,19.2,25.5Zm-3.225-7.489a.613.613,0,0,0,.118-.666c-.109-.176-.332-.173-.5.014a.618.618,0,0,0-.117.666C15.575,18.207,15.8,18.2,15.972,18.016Z" transform="translate(-2.898 -8.282)" fill="#fff"/>
    </g>
    <g id="Group_4" data-name="Group 4" transform="translate(129 40)">
      <rect id="Rectangle_2" data-name="Rectangle 2" width="40" height="40" rx="12" transform="translate(240 185)" fill="url(#linear-gradient)"/>
      <rect id="Rectangle_1" data-name="Rectangle 1" width="40" height="40" rx="12" transform="translate(240 185)" fill="rgba(97,218,251,0.2)"/>
    </g>
  </g>
</svg>
