<svg xmlns="http://www.w3.org/2000/svg" xmlns:xlink="http://www.w3.org/1999/xlink" width="40" height="40" viewBox="0 0 40 40">
  <defs>
    <linearGradient id="linear-gradient" x1="0.5" x2="0.5" y2="1" gradientUnits="objectBoundingBox">
      <stop offset="0" stop-color="#fff" stop-opacity="0.078"/>
      <stop offset="1" stop-opacity="0.078"/>
    </linearGradient>
  </defs>
  <g id="ic_js" transform="translate(-489 -225)">
    <path id="icons8_node_js" d="M12.915,3a1.571,1.571,0,0,0-.777.2L4.772,7.453A1.564,1.564,0,0,0,4,8.8v7.715a1.554,1.554,0,0,0,.772,1.346l1.934,1.115a3.149,3.149,0,0,0,1.694.46,2.042,2.042,0,0,0,2.185-2.3V9.177a.216.216,0,0,0-.215-.216H9.441a.212.212,0,0,0-.216.216V17.13c0,.654-.676,1.293-1.768.751L5.434,16.714a.225.225,0,0,1-.119-.2V8.806A.239.239,0,0,1,5.434,8.6L12.8,4.346a.216.216,0,0,1,.231,0L20.4,8.6a.236.236,0,0,1,.119.2v7.715a.234.234,0,0,1-.112.2l-7.374,4.26a.253.253,0,0,1-.231,0l-1.9-1.122a.17.17,0,0,0-.177-.014,5.012,5.012,0,0,1-1.115.505c-.119.037-.3.111.067.319l2.459,1.458a1.557,1.557,0,0,0,1.553,0l7.375-4.26a1.554,1.554,0,0,0,.772-1.346V8.806a1.554,1.554,0,0,0-.772-1.346L13.692,3.2A1.571,1.571,0,0,0,12.915,3ZM14.9,8.951c-2.1,0-3.359.891-3.359,2.378,0,1.613,1.248,2.058,3.269,2.259,2.416.238,2.6.6,2.6,1.071,0,.818-.661,1.167-2.214,1.167-1.955,0-2.386-.491-2.527-1.458a.208.208,0,0,0-.208-.179H11.5a.208.208,0,0,0-.208.209c0,1.241.676,2.719,3.9,2.719,2.334,0,3.672-.921,3.672-2.526s-1.078-2.015-3.338-2.32c-2.3-.3-2.528-.453-2.528-.989,0-.446.2-1.032,1.9-1.032,1.509,0,2.074.326,2.3,1.344a.214.214,0,0,0,.208.171h.96a.22.22,0,0,0,.155-.074.2.2,0,0,0,.052-.164C18.427,9.775,17.261,8.951,14.9,8.951Z" transform="translate(496.16 232.674)" fill="#5b5b5b"/>
    <g id="Group_8" data-name="Group 8" transform="translate(249 40)">
      <rect id="Rectangle_2" data-name="Rectangle 2" width="40" height="40" rx="12" transform="translate(240 185)" fill="url(#linear-gradient)"/>
      <rect id="Rectangle_1" data-name="Rectangle 1" width="40" height="40" rx="12" transform="translate(240 185)" fill="rgba(97,218,251,0.2)"/>
    </g>
  </g>
</svg>
