<svg xmlns="http://www.w3.org/2000/svg" xmlns:xlink="http://www.w3.org/1999/xlink" width="40" height="40" viewBox="0 0 40 40">
  <defs>
    <linearGradient id="linear-gradient" x1="0.5" x2="0.5" y2="1" gradientUnits="objectBoundingBox">
      <stop offset="0" stop-color="#fff" stop-opacity="0.078"/>
      <stop offset="1" stop-opacity="0.078"/>
    </linearGradient>
  </defs>
  <g id="ic_java" transform="translate(-309 -225)">
    <g id="Group_5" data-name="Group 5" transform="translate(69 40)">
      <rect id="Rectangle_2" data-name="Rectangle 2" width="40" height="40" rx="12" transform="translate(240 185)" fill="url(#linear-gradient)"/>
      <rect id="Rectangle_1" data-name="Rectangle 1" width="40" height="40" rx="12" transform="translate(240 185)" fill="rgba(97,218,251,0.2)"/>
    </g>
    <path id="icons8_java" d="M13.445,1c1.1,2.193-3.939,3.545-4.408,5.371C8.608,8.049,12.028,10,12.031,10a12.591,12.591,0,0,1-1.418-2.35C9.731,5.822,15.824,3.937,13.445,1ZM17,4s-3.8.231-3.994,2.547c-.086,1.031,1,1.581,1.029,2.332A1.621,1.621,0,0,1,13.387,10a2.055,2.055,0,0,0,1.5-1.105C15.306,7.858,14.17,7.1,14.3,6.27,14.418,5.476,17,4,17,4Zm-6.836,6S6,9.942,6,11.141c0,.572,1.16.89,2.764,1.006-.65.028-1.564.539-1.564,1.039,0,1.034,4.9,1.83,8.533.32l-1.256-.818c-2.45.831-6.953.568-5.668-.537a26.916,26.916,0,0,0,6.541-.437,8.711,8.711,0,0,0,1.162-.769c-2.553.528-8.225.375-8.225-.084C8.287,10.436,10.164,10,10.164,10Zm8.43,0a2.214,2.214,0,0,0-1.391.451,1.273,1.273,0,0,1,1.662,1.033c0,1.488-2.064,2.9-2.064,2.9S20,14,20,11.557A1.423,1.423,0,0,0,18.594,10Zm-8.85,4.34A1.378,1.378,0,0,0,8.268,15.42c0,1.411,5.347,1.46,7.467.025l-1.348-.869C12.8,15.327,8.829,15.43,9.744,14.342ZM5.879,16.693C4.59,16.652,4,17.328,4,17.879c0,2.932,14,2.79,14-.205,0-.5-.542-.735-.738-.848,1.143,2.864-11.59,2.667-11.59.976,0-.385.673-.777,1.531-.6a1.43,1.43,0,0,0-.729-.447A4.209,4.209,0,0,0,5.879,16.693ZM20,18.707c-2.2,2.229-8.259,3.582-13.867,2.207C11.767,23.275,19.973,21.442,20,18.707Z" transform="translate(317 233)" fill="#5b5b5b"/>
  </g>
</svg>
