<svg id="ic_react" xmlns="http://www.w3.org/2000/svg" xmlns:xlink="http://www.w3.org/1999/xlink" width="40" height="40" viewBox="0 0 40 40">
  <defs>
    <linearGradient id="linear-gradient" x1="0.5" x2="0.5" y2="1" gradientUnits="objectBoundingBox">
      <stop offset="0" stop-color="#fff" stop-opacity="0.078"/>
      <stop offset="1" stop-opacity="0.078"/>
    </linearGradient>
  </defs>
  <rect id="Rectangle_9" data-name="Rectangle 9" width="40" height="40" rx="12" fill="rgba(97,218,251,0.2)"/>
  <rect id="Rectangle_10" data-name="Rectangle 10" width="40" height="40" rx="12" fill="url(#linear-gradient)"/>
  <g id="Group_16" data-name="Group 16">
    <path id="Path_51" data-name="Path 51" d="M14.064,0V0l.163.006a1.763,1.763,0,0,1,.61.153l.136.071c1.15.667,1.411,2.752.823,5.372C18.341,6.394,20,7.663,20,9s-1.651,2.6-4.179,3.391c.591,2.612.334,4.693-.811,5.36a1.8,1.8,0,0,1-.921.231c-1.121,0-2.589-.8-4.073-2.192C8.532,17.193,7.065,18,5.944,18a1.777,1.777,0,0,1-.917-.231C3.877,17.1,3.616,15.017,4.2,12.4,1.659,11.61,0,10.341,0,9S1.651,6.4,4.187,5.611C3.6,3,3.852.919,5,.251A1.726,1.726,0,0,1,5.718.03l.2-.009c1.121,0,2.589.8,4.073,2.188a7.172,7.172,0,0,1,3.893-2.2ZM5.075,12.644c-.09.416-.163.824-.208,1.211-.188,1.574.053,2.8.607,3.119a.965.965,0,0,0,.461.111A5.994,5.994,0,0,0,9.36,15.153a20.049,20.049,0,0,1-1.7-2.06,19.567,19.567,0,0,1-2.589-.449Zm9.857-.008a18.855,18.855,0,0,1-2.593.453,19.415,19.415,0,0,1-1.684,2.056,6.019,6.019,0,0,0,3.424,1.92.9.9,0,0,0,.469-.107c.55-.325.787-1.549.6-3.123a11.645,11.645,0,0,0-.212-1.2Zm-3.8.548c-.371.021-.75.029-1.133.029s-.754-.012-1.121-.029A16.933,16.933,0,0,0,10.008,14.5,16.036,16.036,0,0,0,11.129,13.184ZM10,5.714c-.62,0-1.235.029-1.843.082-.338.49-.664,1.018-.982,1.574-.306.54-.591,1.092-.844,1.644q.385.828.848,1.64.477.828.987,1.566c.6.049,1.219.078,1.834.078s1.235-.029,1.843-.082c.338-.49.664-1.018.982-1.574.306-.54.587-1.092.844-1.644q-.385-.828-.848-1.64-.477-.828-.987-1.566C11.231,5.743,10.616,5.714,10,5.714Zm4.142,4.392c-.167.33-.342.663-.53.993s-.387.659-.587.976c.583-.087,1.146-.2,1.68-.33-.155-.536-.342-1.088-.563-1.64Zm-8.288.016c-.212.548-.4,1.1-.55,1.627.534.132,1.093.239,1.671.325q-.3-.47-.587-.964c-.192-.33-.367-.659-.534-.989ZM4.411,6.5c-.4.128-.779.264-1.129.416C1.839,7.535.905,8.355.905,9s.934,1.463,2.377,2.085c.355.152.738.293,1.141.42a19.643,19.643,0,0,1,.905-2.5A19.922,19.922,0,0,1,4.411,6.5Zm11.162,0a19.643,19.643,0,0,1-.905,2.5,19.922,19.922,0,0,1,.917,2.509c.4-.128.779-.264,1.129-.416,1.443-.618,2.377-1.438,2.381-2.085s-.934-1.463-2.377-2.085c-.359-.152-.742-.293-1.146-.42ZM10,7.119A1.883,1.883,0,1,1,8.133,9,1.873,1.873,0,0,1,10,7.119ZM6.971,5.929c-.583.087-1.146.2-1.68.325.155.536.342,1.088.563,1.64.167-.33.342-.659.53-.989s.387-.659.587-.976Zm6.05,0c.2.313.4.634.587.964s.367.659.534.989c.212-.548.4-1.1.55-1.627-.534-.132-1.093-.239-1.671-.325ZM5.919.935a.941.941,0,0,0-.469.111c-.55.325-.787,1.549-.6,3.123.049.383.118.783.212,1.195A18.855,18.855,0,0,1,7.66,4.911,19.415,19.415,0,0,1,9.344,2.855,6.452,6.452,0,0,0,6.072.942ZM14.06.918l-.149.008A6.427,6.427,0,0,0,10.64,2.851a20.049,20.049,0,0,1,1.7,2.06,19.567,19.567,0,0,1,2.589.449c.09-.416.163-.824.208-1.211.188-1.574-.053-2.8-.607-3.119a.861.861,0,0,0-.331-.1L14.06.923ZM9.988,3.5A16.036,16.036,0,0,0,8.867,4.82c.371-.021.75-.029,1.133-.029s.754.012,1.121.029A16.933,16.933,0,0,0,9.988,3.5Z" transform="translate(10 11)" fill="#61dafb"/>
  </g>
</svg>
