<svg xmlns="http://www.w3.org/2000/svg" xmlns:xlink="http://www.w3.org/1999/xlink" width="40" height="40" viewBox="0 0 40 40">
  <defs>
    <linearGradient id="linear-gradient" x1="0.5" y1="-0.066" x2="0.5" y2="0.893" gradientUnits="objectBoundingBox">
      <stop offset="0" stop-color="#6dc7ff"/>
      <stop offset="1" stop-color="#e6abff"/>
    </linearGradient>
    <linearGradient id="linear-gradient-2" x1="0.5" y1="-0.024" x2="0.5" y2="0.957" gradientUnits="objectBoundingBox">
      <stop offset="0" stop-color="#1a6dff"/>
      <stop offset="1" stop-color="#c822ff"/>
    </linearGradient>
    <linearGradient id="linear-gradient-3" x1="0.5" x2="0.5" y2="1" gradientUnits="objectBoundingBox">
      <stop offset="0" stop-color="#fff" stop-opacity="0.078"/>
      <stop offset="1" stop-opacity="0.078"/>
    </linearGradient>
  </defs>
  <g id="ic_react_grad" transform="translate(-609 -225)">
    <g id="icons8_react_native" transform="translate(612.774 228.137)">
      <circle id="Ellipse_1" data-name="Ellipse 1" cx="2.334" cy="2.334" r="2.334" transform="translate(13.779 15.329)" fill="url(#linear-gradient)"/>
      <path id="Path_38" data-name="Path 38" d="M26.226,17.663c0-1.462-1.65-2.729-4.221-3.5.086-.4.158-.8.2-1.173.256-2.133-.188-3.626-1.249-4.206s-2.557-.145-4.213,1.224c-.212.175-.423.365-.634.564-.211-.2-.422-.389-.634-.564-1.656-1.368-3.152-1.8-4.213-1.224s-1.5,2.073-1.249,4.206c.045.378.118.772.2,1.173C7.65,14.934,6,16.2,6,17.663s1.65,2.729,4.221,3.5c-.086.4-.158.8-.2,1.173-.256,2.133.188,3.626,1.249,4.206a2.1,2.1,0,0,0,1.022.25,5.369,5.369,0,0,0,3.191-1.473c.212-.175.423-.365.634-.564.211.2.422.389.634.564a5.369,5.369,0,0,0,3.191,1.473,2.1,2.1,0,0,0,1.022-.25c1.061-.579,1.5-2.073,1.249-4.206-.045-.378-.118-.772-.2-1.173C24.575,20.392,26.226,19.125,26.226,17.663ZM17.242,10.61c1.373-1.135,2.592-1.551,3.345-1.14s1.061,1.661.849,3.43c-.041.342-.106.7-.182,1.061a19.69,19.69,0,0,0-2.681-.454,19.549,19.549,0,0,0-1.909-2.385C16.856,10.941,17.049,10.769,17.242,10.61Zm1.944,8.731c-.332.608-.685,1.188-1.051,1.74-.642.054-1.317.083-2.021.083s-1.379-.029-2.022-.083c-.366-.552-.719-1.133-1.051-1.74-.3-.558-.583-1.119-.833-1.678.25-.558.528-1.119.833-1.678.332-.608.685-1.188,1.051-1.74.643-.054,1.317-.083,2.022-.083s1.379.029,2.022.083c.366.552.719,1.133,1.051,1.74.3.558.583,1.119.833,1.678C19.769,18.221,19.49,18.782,19.185,19.341Zm1.236-.71a18.412,18.412,0,0,1,.652,1.982,18.169,18.169,0,0,1-1.948.361c.256-.408.506-.826.743-1.261C20.065,19.354,20.247,18.992,20.422,18.63Zm-4.309,5.024a18,18,0,0,1-1.45-1.755c.473.028.956.043,1.45.043s.977-.015,1.45-.043A18,18,0,0,1,16.113,23.654ZM13.1,20.974a18.169,18.169,0,0,1-1.948-.361A18.384,18.384,0,0,1,11.8,18.63c.175.362.357.723.553,1.083C12.594,20.148,12.844,20.566,13.1,20.974ZM11.8,16.7a18.441,18.441,0,0,1-.652-1.982,18.168,18.168,0,0,1,1.948-.361c-.256.408-.506.826-.743,1.261C12.161,15.973,11.979,16.334,11.8,16.7Zm4.309-5.024a18,18,0,0,1,1.45,1.755c-.473-.028-.956-.043-1.45-.043s-.977.015-1.45.043A18,18,0,0,1,16.113,11.672Zm3.755,3.941c-.237-.434-.487-.852-.743-1.261a18.168,18.168,0,0,1,1.948.361,18.384,18.384,0,0,1-.652,1.982C20.247,16.334,20.065,15.973,19.868,15.613ZM10.79,12.9c-.212-1.769.1-3.02.849-3.43a1.344,1.344,0,0,1,.654-.154,4.7,4.7,0,0,1,2.691,1.294c.193.159.386.331.579.513a19.483,19.483,0,0,0-1.909,2.385,19.729,19.729,0,0,0-2.681.454C10.9,13.6,10.831,13.242,10.79,12.9ZM6.778,17.663c0-1.011,1.35-2.063,3.624-2.746a20.051,20.051,0,0,0,.961,2.746,20.087,20.087,0,0,0-.961,2.746C8.128,19.726,6.778,18.674,6.778,17.663Zm8.206,7.053c-1.373,1.135-2.591,1.552-3.345,1.14s-1.061-1.661-.849-3.43c.041-.342.106-.7.182-1.061a19.689,19.689,0,0,0,2.681.454A19.549,19.549,0,0,0,15.562,24.2C15.37,24.385,15.177,24.557,14.984,24.716Zm6.452-2.29c.212,1.769-.1,3.02-.849,3.43s-1.971-.005-3.345-1.14c-.193-.159-.386-.331-.579-.513a19.483,19.483,0,0,0,1.909-2.385,19.729,19.729,0,0,0,2.681-.454C21.33,21.728,21.395,22.084,21.436,22.426Zm.388-2.017a20.05,20.05,0,0,0-.961-2.746,20.087,20.087,0,0,0,.961-2.746c2.274.683,3.624,1.735,3.624,2.746S24.1,19.726,21.824,20.409Z" transform="translate(0 0)" fill="url(#linear-gradient-2)"/>
    </g>
    <g id="Group_6" data-name="Group 6" transform="translate(369 40)">
      <rect id="Rectangle_2" data-name="Rectangle 2" width="40" height="40" rx="12" transform="translate(240 185)" fill="url(#linear-gradient-3)"/>
      <rect id="Rectangle_1" data-name="Rectangle 1" width="40" height="40" rx="12" transform="translate(240 185)" fill="rgba(97,218,251,0.2)"/>
    </g>
  </g>
</svg>
